<svg xmlns="http://www.w3.org/2000/svg" width="1200" height="320" viewBox="0 0 1200 320" fill="none">
  <defs>
    <linearGradient id="bg" x1="16" y1="16" x2="1184" y2="304" gradientUnits="userSpaceOnUse">
      <stop stop-color="#0A1626"/>
      <stop offset="0.55" stop-color="#112843"/>
      <stop offset="1" stop-color="#1A5058"/>
    </linearGradient>
    <linearGradient id="path" x1="700" y1="78" x2="1088" y2="228" gradientUnits="userSpaceOnUse">
      <stop stop-color="#DCEFA8"/>
      <stop offset="0.5" stop-color="#F4C35A"/>
      <stop offset="1" stop-color="#F28A52"/>
    </linearGradient>
  </defs>

  <rect x="12" y="12" width="1176" height="296" rx="28" fill="url(#bg)"/>
  <rect x="12.75" y="12.75" width="1174.5" height="294.5" rx="27.25" stroke="#89A8BE" stroke-opacity="0.16" stroke-width="1.5"/>

  <g opacity="0.16">
    <path d="M648 74H1114" stroke="#D7E5F0" stroke-width="1.5"/>
    <path d="M648 132H1114" stroke="#D7E5F0" stroke-width="1.5"/>
    <path d="M648 190H1114" stroke="#D7E5F0" stroke-width="1.5"/>
    <path d="M648 248H1114" stroke="#D7E5F0" stroke-width="1.5"/>
    <path d="M736 54V266" stroke="#D7E5F0" stroke-width="1.5"/>
    <path d="M848 54V266" stroke="#D7E5F0" stroke-width="1.5"/>
    <path d="M960 54V266" stroke="#D7E5F0" stroke-width="1.5"/>
    <path d="M1072 54V266" stroke="#D7E5F0" stroke-width="1.5"/>
  </g>

  <text x="78" y="124" fill="white" font-size="58" font-family="Georgia, 'Times New Roman', serif" font-weight="700">LatticeBridge</text>
  <text x="80" y="170" fill="#DDE8EF" font-size="24" font-family="'Helvetica Neue', Helvetica, Arial, sans-serif">Rare-event inference for input-faithful structured generation</text>
  <text x="80" y="210" fill="#AFC7D7" font-size="20" font-family="'Helvetica Neue', Helvetica, Arial, sans-serif">Surface automata • compact prefix models • twisted SMC</text>

  <g opacity="0.4" stroke="#7396AE" stroke-width="2.5">
    <path d="M680 210L790 138L900 210L1010 138L1114 206"/>
    <path d="M680 118L790 138L900 118L1010 138L1114 84"/>
    <path d="M680 210V118"/>
    <path d="M790 138V138"/>
    <path d="M900 210V118"/>
    <path d="M1010 138V138"/>
    <path d="M1114 206V84"/>
  </g>

  <path d="M680 210L790 138L900 210L1010 138L1114 206" stroke="url(#path)" stroke-width="10" stroke-linecap="round" stroke-linejoin="round"/>

  <circle cx="680" cy="210" r="10" fill="#DCEFA8"/>
  <circle cx="680" cy="118" r="10" fill="#DCE8F0"/>
  <circle cx="790" cy="138" r="10" fill="#F4C35A"/>
  <circle cx="900" cy="210" r="10" fill="#F4C35A"/>
  <circle cx="900" cy="118" r="10" fill="#DCE8F0"/>
  <circle cx="1010" cy="138" r="10" fill="#F4C35A"/>
  <circle cx="1114" cy="206" r="10" fill="#DCEFA8"/>
  <circle cx="1114" cy="84" r="10" fill="#DCE8F0"/>
</svg>
